<svg xmlns="http://www.w3.org/2000/svg" width="300" height="300" viewBox="0 0 300 300" version="1.1"><path d="M 144 7.327 C 140.975 9.118, 112.513 25.607, 80.750 43.968 L 23 77.351 23 149.969 L 23 222.587 32.250 227.989 C 37.338 230.961, 65.922 247.468, 95.772 264.672 L 150.044 295.953 208.272 262.296 C 240.297 243.784, 268.445 227.538, 270.823 226.193 C 273.200 224.848, 275.563 222.650, 276.073 221.309 C 276.611 219.894, 277 189.172, 277 148.130 L 277 77.390 255.250 64.778 C 197.155 31.093, 151.401 4.727, 150.500 4.415 C 149.950 4.225, 147.025 5.535, 144 7.327 M 89.500 46.335 L 30.500 80.523 30.500 150.006 L 30.500 219.490 89.500 253.702 C 121.950 272.518, 149.259 287.821, 150.187 287.707 C 151.114 287.593, 178.434 272.200, 210.897 253.500 L 269.921 219.500 269.918 150 L 269.915 80.500 210.814 46.500 C 178.308 27.800, 150.990 12.420, 150.106 12.323 C 149.223 12.226, 121.950 27.531, 89.500 46.335 M 175 51.895 C 170.506 54.628, 170.500 54.639, 170.500 60.382 L 170.500 66.133 175.166 68.781 L 179.832 71.428 184.666 68.775 C 189.442 66.154, 189.504 66.057, 189.796 60.676 L 190.093 55.229 185.031 52.114 C 182.248 50.401, 179.864 49.035, 179.735 49.079 C 179.606 49.122, 177.475 50.389, 175 51.895 M 113.250 52.031 C 109.494 53.541, 110.722 54.833, 115.750 54.662 C 119.973 54.518, 120.535 54.750, 120.820 56.750 C 121.096 58.699, 120.691 59, 117.792 59 C 111.050 59, 107.635 64.549, 111.965 68.468 C 113.383 69.752, 114.705 70.049, 116.715 69.538 C 118.247 69.148, 120.710 68.848, 122.188 68.870 L 124.876 68.910 124.334 61.705 C 123.603 51.999, 120.364 49.172, 113.250 52.031 M 155.338 51.999 C 150.589 53.914, 151.661 60.327, 156.923 61.483 C 163.756 62.984, 163.279 67.517, 156.370 66.738 C 150.797 66.110, 150.214 68.574, 155.692 69.602 C 160.820 70.564, 164.500 68.416, 164.500 64.462 C 164.500 61.907, 163.837 61.183, 159.673 59.195 C 155.526 57.214, 155.027 56.673, 156.127 55.347 C 157.008 54.286, 158.435 53.971, 160.704 54.339 C 164.552 54.964, 165.456 52.624, 161.750 51.630 C 158.907 50.869, 158.013 50.920, 155.338 51.999 M 128.824 60.544 C 131.007 67.823, 131.680 69.045, 133.372 68.794 C 134.878 68.571, 135.644 67.224, 136.543 63.220 C 137.194 60.316, 137.960 57.707, 138.244 57.422 C 138.529 57.138, 139.396 59.514, 140.172 62.703 C 141.245 67.111, 142.052 68.564, 143.541 68.768 C 145.189 68.992, 145.918 67.681, 148.131 60.518 C 150.550 52.687, 150.619 52, 148.989 52 C 147.883 52, 146.967 53.034, 146.553 54.750 C 146.188 56.263, 145.395 59.300, 144.792 61.500 L 143.694 65.500 142.046 59 C 140.744 53.861, 140.001 52.500, 138.500 52.500 C 136.999 52.500, 136.256 53.861, 134.954 59 L 133.306 65.500 132.208 61.500 C 131.605 59.300, 130.812 56.263, 130.447 54.750 C 130.035 53.043, 129.116 52, 128.023 52 C 126.405 52, 126.469 52.691, 128.824 60.544 M 115.250 61.662 C 114.563 61.940, 114 63.254, 114 64.583 C 114 66.461, 114.530 67, 116.378 67 C 119.206 67, 121.457 64.632, 120.643 62.513 C 120.074 61.030, 117.732 60.661, 115.250 61.662 M 156 77.417 C 156 78.746, 155.438 80.062, 154.750 80.341 C 153.795 80.728, 153.780 81.048, 154.686 81.693 C 155.338 82.158, 156.044 84.780, 156.256 87.519 L 156.640 92.500 156.820 87.250 C 156.996 82.123, 157.071 82, 160 82 C 162.933 82, 163 82.111, 163 87 C 163 89.825, 163.457 92, 164.050 92 C 164.696 92, 164.985 89.789, 164.800 86.250 L 164.500 80.500 160.750 80.190 C 157.864 79.951, 157 79.448, 157 78.009 C 157 76.865, 157.873 75.971, 159.250 75.706 C 161.179 75.334, 161.108 75.253, 158.750 75.136 C 156.471 75.023, 156 75.414, 156 77.417 M 189 78.019 C 189 80.709, 188.738 80.972, 186.593 80.434 C 182.538 79.416, 180 81.525, 180 85.913 C 180 90.603, 181.674 92.152, 186.398 91.834 L 190 91.591 190 83.296 C 190 78.733, 189.775 75, 189.500 75 C 189.225 75, 189 76.359, 189 78.019 M 149 77 C 149 77.550, 149.450 78, 150 78 C 150.550 78, 151 77.550, 151 77 C 151 76.450, 150.550 76, 150 76 C 149.450 76, 149 76.450, 149 77 M 163 77 C 163 77.550, 163.450 78, 164 78 C 164.550 78, 165 77.550, 165 77 C 165 76.450, 164.550 76, 164 76 C 163.450 76, 163 76.450, 163 77 M 142.116 78.167 C 142.052 79.083, 141.438 80.062, 140.750 80.341 C 139.799 80.726, 139.782 81.049, 140.681 81.690 C 141.331 82.154, 142.006 84.550, 142.181 87.016 C 142.462 90.969, 142.796 91.528, 145 91.740 C 147.464 91.977, 147.467 91.966, 145.250 91.022 C 143.447 90.255, 143 89.263, 143 86.032 C 143 82.667, 143.331 82, 145 82 C 146.100 82, 147 81.550, 147 81 C 147 80.450, 146.133 80, 145.073 80 C 144.014 80, 142.941 79.213, 142.689 78.250 C 142.287 76.710, 142.218 76.700, 142.116 78.167 M 111.655 81.829 C 109.770 83.912, 109.520 87.234, 111.035 90.066 C 111.755 91.411, 113.049 91.964, 115.285 91.882 L 118.500 91.763 115.500 91.127 C 112.962 90.589, 112.449 89.960, 112.171 87.040 C 111.818 83.335, 114.007 80.682, 116.597 81.676 C 117.369 81.972, 118 81.716, 118 81.107 C 118 79.321, 113.457 79.837, 111.655 81.829 M 121.655 81.829 C 119.410 84.309, 119.570 88.570, 122 91 C 124.207 93.207, 125.738 93.462, 128 92 C 129.140 91.263, 128.729 91.027, 126.285 91.015 C 124.104 91.005, 122.726 90.357, 122 89 C 121.011 87.152, 121.240 87, 124.996 87 C 129.525 87, 130.828 85.415, 129.042 82.078 C 127.661 79.498, 123.880 79.371, 121.655 81.829 M 133.181 86.500 C 133.356 92.340, 133.371 92.370, 133.739 87.641 C 134.035 83.857, 134.548 82.669, 136.059 82.274 C 138.848 81.545, 138.453 80.185, 135.501 80.356 C 133.107 80.494, 133.009 80.754, 133.181 86.500 M 150.320 86 C 150.320 89.575, 150.502 91.037, 150.723 89.250 C 150.945 87.463, 150.945 84.537, 150.723 82.750 C 150.502 80.963, 150.320 82.425, 150.320 86 M 169.750 81.060 C 168.557 81.769, 168 83.349, 168 86.027 C 168 90.888, 171.225 93.637, 175.106 92.084 C 177.427 91.156, 177.407 91.125, 174.450 91.063 C 168.804 90.946, 166.941 87, 172.531 87 C 174.878 87, 176.273 86.451, 176.691 85.364 C 178.091 81.715, 173.470 78.849, 169.750 81.060 M 122.980 82.524 C 121.284 84.568, 122.149 85.205, 126.094 84.821 C 129.228 84.515, 129.298 84.419, 127.618 82.750 C 125.459 80.604, 124.608 80.563, 122.980 82.524 M 170.750 82.080 C 167.947 83.713, 168.719 85, 172.500 85 C 176.164 85, 176.812 84.212, 174.800 82.200 C 173.367 80.767, 173.022 80.757, 170.750 82.080 M 182.517 82.626 C 179.066 86.077, 182.774 92.883, 186.750 90.394 C 189.223 88.846, 189.615 83.923, 187.395 82.299 C 185.098 80.620, 184.482 80.661, 182.517 82.626 M 78 106 C 78 106.657, 102.667 107, 150 107 C 197.333 107, 222 106.657, 222 106 C 222 105.343, 197.333 105, 150 105 C 102.667 105, 78 105.343, 78 106 M 128 131.465 C 128 140.971, 128.187 142.030, 130.038 143.020 C 132.445 144.309, 136 143.426, 136 141.540 C 136 140.811, 135.325 139.955, 134.500 139.638 C 133.320 139.186, 133 137.137, 133 130.031 C 133 121.065, 132.982 121, 130.500 121 L 128 121 128 131.465 M 183 124.500 C 183 127.822, 182.825 128, 179.557 128 C 175.313 128, 173 130.875, 173 136.150 C 173 138.978, 173.635 140.354, 175.682 141.965 C 177.261 143.207, 179.009 143.800, 179.932 143.407 C 180.794 143.040, 182.963 142.812, 184.750 142.901 L 188 143.063 188 132.031 L 188 121 185.500 121 C 183.310 121, 183 121.433, 183 124.500 M 115.329 123.458 C 111.344 125.191, 110 127.674, 110 133.299 C 110 141.024, 116.445 145.682, 123.449 143.019 C 127.652 141.422, 126.448 138.645, 121.518 138.565 C 118.195 138.511, 117.319 138.046, 116.214 135.750 C 114.130 131.420, 116.384 127.594, 121.257 127.190 C 124.099 126.954, 125 126.440, 125 125.056 C 125 122.050, 120.337 121.279, 115.329 123.458 M 138.982 130.750 C 136.700 133.651, 136.718 138.751, 139.021 141.525 C 142.291 145.465, 150.629 143.692, 152.274 138.707 C 154.240 132.749, 151.014 128, 145.001 128 C 141.986 128, 140.674 128.599, 138.982 130.750 M 155.345 129.542 C 155.020 130.390, 154.975 133.391, 155.246 136.210 C 155.796 141.930, 158.027 144.482, 161.448 143.301 C 162.576 142.911, 164.963 142.684, 166.750 142.796 L 170 142.999 170 135.499 C 170 128.207, 169.932 128, 167.550 128 C 165.269 128, 165.079 128.396, 164.800 133.750 C 164.575 138.061, 164.125 139.500, 163 139.500 C 161.875 139.500, 161.425 138.061, 161.200 133.750 C 160.920 128.375, 160.738 128, 158.419 128 C 157.054 128, 155.671 128.694, 155.345 129.542 M 178.965 133.066 C 178.093 134.694, 178.080 135.879, 178.911 137.705 C 180.516 141.227, 182.500 140.008, 182.500 135.500 C 182.500 131.104, 180.684 129.854, 178.965 133.066 M 143.190 135.750 C 143.399 138.279, 143.989 139.500, 145 139.500 C 146.011 139.500, 146.601 138.279, 146.810 135.750 C 147.080 132.498, 146.839 132, 145 132 C 143.161 132, 142.920 132.498, 143.190 135.750 M 140.359 151.507 C 140.011 152.414, 140.383 153.812, 141.186 154.614 C 143.187 156.615, 146.188 155.321, 145.803 152.623 C 145.424 149.965, 141.277 149.115, 140.359 151.507 M 161.667 150.667 C 160.400 151.933, 161.006 154.788, 162.678 155.430 C 164.802 156.245, 167.471 153.669, 166.668 151.578 C 166.060 149.994, 162.913 149.420, 161.667 150.667 M 67.473 153.210 C 67.167 154.007, 67.048 158.673, 67.209 163.579 C 67.500 172.486, 67.504 172.501, 70.250 172.816 C 72.795 173.109, 73 172.867, 73 169.566 C 73 166.334, 73.260 166, 75.777 166 C 81.978 166, 85.287 159.511, 81.634 154.515 C 79.818 152.031, 68.332 150.973, 67.473 153.210 M 129.290 156 C 129.002 157.100, 128.369 158, 127.883 158 C 127.398 158, 127 158.675, 127 159.500 C 127 160.325, 127.450 161, 128 161 C 128.550 161, 129 163.160, 129 165.800 C 129 171.457, 130.222 173, 134.700 173 C 137.265 173, 138 172.581, 138 171.117 C 138 170.074, 137.107 169, 136 168.710 C 134.528 168.325, 134 167.346, 134 165 C 134 162.654, 134.528 161.675, 136 161.290 C 137.100 161.002, 138 160.197, 138 159.500 C 138 158.803, 137.100 157.998, 136 157.710 C 134.900 157.423, 134 156.470, 134 155.594 C 134 153.223, 129.924 153.575, 129.290 156 M 150.292 155.750 C 149.936 156.713, 149.163 157.824, 148.573 158.219 C 147.823 158.723, 147.876 159.545, 148.750 160.956 C 149.438 162.065, 150 164.724, 150 166.864 C 150 171.419, 151.767 173.272, 155.681 172.822 C 159.051 172.435, 160.029 169.502, 157.048 168.723 C 154.085 167.948, 154.042 161, 157 161 C 158.100 161, 159 160.377, 159 159.617 C 159 158.856, 158.100 157.998, 157 157.710 C 155.900 157.423, 155 156.470, 155 155.594 C 155 153.413, 151.106 153.542, 150.292 155.750 M 73 159 C 73 162.289, 74.918 163.008, 77 160.500 C 77.993 159.303, 77.993 158.697, 77 157.500 C 74.918 154.992, 73 155.711, 73 159 M 93.086 157.926 C 92.308 158.418, 90.150 158.574, 88.289 158.272 L 84.907 157.723 85.203 165.112 C 85.492 172.306, 85.571 172.508, 88.196 172.811 C 90.792 173.111, 90.902 172.927, 91.196 167.811 C 91.461 163.175, 91.786 162.459, 93.750 162.180 C 95.379 161.949, 96 161.190, 96 159.430 C 96 156.835, 95.344 156.497, 93.086 157.926 M 99.750 157.689 C 98.787 157.941, 98 158.952, 98 159.937 C 98 161.352, 98.766 161.704, 101.646 161.614 C 103.754 161.548, 105.477 162.027, 105.730 162.750 C 106.023 163.590, 105.056 164, 102.783 164 C 98.876 164, 97 165.485, 97 168.578 C 97 171.861, 98.930 172.845, 105.256 172.789 L 111 172.737 111 166.440 C 111 162.049, 110.524 159.667, 109.429 158.571 C 107.939 157.082, 103.590 156.686, 99.750 157.689 M 117.500 158.195 C 114.576 159.853, 114.032 161.028, 114.015 165.727 C 113.997 170.792, 116.910 173.325, 122.171 172.819 C 126.726 172.381, 127.541 169, 123.092 169 C 120.664 169, 119.909 168.485, 119.407 166.487 C 118.625 163.371, 120.446 161, 123.622 161 C 126.307 161, 126.881 158.552, 124.418 157.607 C 122.094 156.715, 119.760 156.913, 117.500 158.195 M 172.736 158.250 C 168.761 161.269, 168.537 168.862, 172.345 171.529 C 175.357 173.639, 180.622 173.378, 183 171 C 186.058 167.942, 185.727 161.717, 182.365 159.073 C 179.399 156.739, 175.198 156.380, 172.736 158.250 M 195.631 157.702 C 195.245 158.088, 193.370 158.299, 191.465 158.171 L 188 157.937 188 165.469 C 188 172.795, 188.067 173, 190.450 173 C 192.731 173, 192.921 172.603, 193.200 167.260 C 193.437 162.732, 193.870 161.449, 195.250 161.186 C 196.763 160.898, 197 161.686, 197 166.993 C 197 173.101, 197.014 173.131, 199.750 172.816 C 202.352 172.517, 202.516 172.191, 202.799 166.776 C 202.964 163.628, 202.610 160.140, 202.014 159.026 C 200.963 157.063, 197.076 156.257, 195.631 157.702 M 207.974 158.820 C 204.760 161.422, 204.796 168.606, 208.035 171.229 C 211.057 173.677, 218.321 173.354, 218.815 170.750 C 219.087 169.315, 218.412 169, 215.073 169 C 212.119 169, 211 168.588, 211 167.500 C 211 166.417, 212.111 166, 215 166 C 218.756 166, 219 165.821, 219 163.071 C 219 157.402, 212.717 154.979, 207.974 158.820 M 230.086 157.926 C 229.308 158.418, 227.150 158.574, 225.289 158.272 L 221.907 157.723 222.203 165.112 C 222.490 172.247, 222.586 172.500, 225 172.500 C 227.311 172.500, 227.523 172.103, 227.802 167.250 C 228.080 162.429, 228.304 162, 230.552 162 C 232.497 162, 233 161.486, 233 159.500 C 233 156.838, 232.355 156.489, 230.086 157.926 M 140.206 165.250 C 140.493 172.332, 140.564 172.507, 143.250 172.816 L 146 173.133 146 165.566 L 146 158 142.956 158 L 139.912 158 140.206 165.250 M 161 165.500 L 161 173 164 173 L 167 173 167 165.500 L 167 158 164 158 L 161 158 161 165.500 M 175.390 162.427 C 174.440 164.902, 175.433 168.467, 177.165 168.797 C 179.121 169.169, 180.428 165.925, 179.500 163 C 178.767 160.689, 176.194 160.331, 175.390 162.427 M 211 162 C 211 162.550, 211.900 163, 213 163 C 214.100 163, 215 162.550, 215 162 C 215 161.450, 214.100 161, 213 161 C 211.900 161, 211 161.450, 211 162 M 103 167 C 101.819 167.730, 101.770 168.170, 102.758 169.158 C 103.724 170.124, 104.267 170.133, 105.200 169.200 C 106.822 167.578, 105.005 165.761, 103 167 M 113.750 187.750 C 133.688 187.901, 166.313 187.901, 186.250 187.750 C 206.188 187.598, 189.875 187.474, 150 187.474 C 110.125 187.474, 93.813 187.598, 113.750 187.750 M 59.200 208.671 C 59.381 212.089, 59.997 214.506, 60.750 214.754 C 61.493 215, 62 214.285, 62 212.990 C 62 211.654, 62.773 210.611, 64 210.290 C 66.631 209.602, 66.573 208, 63.917 208 C 62.689 208, 62.008 207.486, 62.260 206.750 C 62.494 206.063, 63.657 205.641, 64.843 205.813 C 66.266 206.019, 67 205.594, 67 204.563 C 67 203.403, 65.956 203, 62.950 203 L 58.900 203 59.200 208.671 M 73.956 204.553 C 70.638 208.551, 73.465 215, 78.536 215 C 83.188 215, 85.816 207.959, 82.429 204.571 C 80.413 202.556, 75.622 202.546, 73.956 204.553 M 90 207.355 C 90 212.367, 91.850 215, 95.371 215 C 98.763 215, 100 213.075, 100 207.800 C 100 204.200, 99.625 203, 98.500 203 C 97.392 203, 97 204.160, 97 207.441 C 97 214.735, 93.733 214.392, 93.576 207.082 C 93.522 204.540, 93.005 203.440, 91.750 203.195 C 90.292 202.910, 90 203.604, 90 207.355 M 107 209 C 107 213.549, 107.347 215, 108.437 215 C 109.326 215, 109.994 213.762, 110.189 211.750 L 110.505 208.500 112.278 211.750 C 115.193 217.092, 117 216.007, 117 208.917 C 117 204.481, 116.662 202.953, 115.750 203.276 C 115.063 203.519, 114.585 204.907, 114.688 206.359 C 114.940 209.895, 113.535 209.707, 112 206 C 111.243 204.172, 110.023 203, 108.879 203 C 107.249 203, 107 203.796, 107 209 M 124 209 C 124 214.893, 124.049 215, 126.777 215 C 130.827 215, 134 212.407, 134 209.098 C 134 205.510, 131.190 203, 127.171 203 L 124 203 124 209 M 141.372 208.488 C 139.600 214.111, 140.160 216.869, 142.442 213.748 C 144.009 211.605, 145.366 211.531, 147 213.500 C 147.685 214.325, 148.835 215, 149.557 215 C 150.560 215, 150.392 213.588, 148.843 209 C 146.128 200.962, 143.795 200.802, 141.372 208.488 M 155.250 204.250 C 155.479 204.938, 156.304 205.500, 157.083 205.500 C 158.067 205.500, 158.594 206.972, 158.807 210.314 C 159.208 216.595, 161.388 216.067, 161.808 209.587 C 162.045 205.931, 162.450 204.959, 163.558 205.384 C 164.411 205.711, 165 205.337, 165 204.469 C 165 203.370, 163.720 203, 159.917 203 C 156.294 203, 154.953 203.359, 155.250 204.250 M 171 209 C 171 213.667, 171.333 215, 172.500 215 C 173.667 215, 174 213.667, 174 209 C 174 204.333, 173.667 203, 172.500 203 C 171.333 203, 171 204.333, 171 209 M 181.971 204.535 C 180.156 206.721, 180.549 212.197, 182.630 213.719 C 188.418 217.951, 195.500 209.643, 190.429 204.571 C 188.421 202.564, 183.624 202.543, 181.971 204.535 M 199 209 C 199 215.563, 200.680 217.275, 201.208 211.250 L 201.537 207.500 203.470 211.284 C 206.331 216.885, 208.427 215.884, 208.800 208.740 C 209.037 204.193, 208.791 203, 207.613 203 C 206.668 203, 206.012 204.182, 205.811 206.250 L 205.495 209.500 203.722 206.250 C 200.821 200.933, 199 201.993, 199 209 M 216.157 209 C 214.463 214.016, 214.371 215, 215.597 215 C 216.403 215, 217.322 214.325, 217.638 213.500 C 218.388 211.547, 219.901 211.600, 222.177 213.661 C 225.065 216.274, 225.553 214.408, 223.534 208.470 C 220.972 200.932, 218.830 201.086, 216.157 209 M 231.200 208.750 L 231.500 214.500 235.250 214.810 C 238.114 215.047, 239 214.752, 239 213.560 C 239 212.563, 238.099 212, 236.500 212 C 234.204 212, 234 211.633, 234 207.500 C 234 204.102, 233.620 203, 232.450 203 C 231.195 203, 230.957 204.094, 231.200 208.750 M 76.688 205.646 C 76.309 206.024, 76 207.608, 76 209.167 C 76 211.348, 76.468 212, 78.031 212 C 79.149 212, 80.345 211.264, 80.691 210.364 C 81.709 207.709, 78.457 203.876, 76.688 205.646 M 127.658 205.675 C 127.296 206.037, 127 207.641, 127 209.240 C 127 211.469, 127.408 212.069, 128.750 211.813 C 130.940 211.396, 131.564 207.713, 129.706 206.171 C 128.942 205.537, 128.020 205.313, 127.658 205.675 M 184.667 205.667 C 183.452 206.881, 183.976 211.777, 185.378 212.315 C 188.326 213.446, 190.232 208.632, 187.800 206.200 C 186.441 204.841, 185.631 204.703, 184.667 205.667 M 144 208.500 C 144 209.325, 144.450 210, 145 210 C 145.550 210, 146 209.325, 146 208.500 C 146 207.675, 145.550 207, 145 207 C 144.450 207, 144 207.675, 144 208.500 M 219 208.500 C 219 209.325, 219.450 210, 220 210 C 220.550 210, 221 209.325, 221 208.500 C 221 207.675, 220.550 207, 220 207 C 219.450 207, 219 207.675, 219 208.500" stroke="none" fill="#cccccc" fill-rule="evenodd"/><path d="M 89.500 46.335 L 30.500 80.523 30.500 150.006 L 30.500 219.490 89.500 253.702 C 121.950 272.518, 149.259 287.821, 150.187 287.707 C 151.114 287.593, 178.434 272.200, 210.897 253.500 L 269.921 219.500 269.918 150 L 269.915 80.500 210.814 46.500 C 178.308 27.800, 150.990 12.420, 150.106 12.323 C 149.223 12.226, 121.950 27.531, 89.500 46.335 M 175 51.895 C 170.506 54.628, 170.500 54.639, 170.500 60.382 L 170.500 66.133 175.166 68.781 L 179.832 71.428 184.666 68.775 C 189.442 66.154, 189.504 66.057, 189.796 60.676 L 190.093 55.229 185.031 52.114 C 182.248 50.401, 179.864 49.035, 179.735 49.079 C 179.606 49.122, 177.475 50.389, 175 51.895 M 113.250 52.031 C 109.494 53.541, 110.722 54.833, 115.750 54.662 C 119.973 54.518, 120.535 54.750, 120.820 56.750 C 121.096 58.699, 120.691 59, 117.792 59 C 111.050 59, 107.635 64.549, 111.965 68.468 C 113.383 69.752, 114.705 70.049, 116.715 69.538 C 118.247 69.148, 120.710 68.848, 122.188 68.870 L 124.876 68.910 124.334 61.705 C 123.603 51.999, 120.364 49.172, 113.250 52.031 M 155.338 51.999 C 150.589 53.914, 151.661 60.327, 156.923 61.483 C 163.756 62.984, 163.279 67.517, 156.370 66.738 C 150.797 66.110, 150.214 68.574, 155.692 69.602 C 160.820 70.564, 164.500 68.416, 164.500 64.462 C 164.500 61.907, 163.837 61.183, 159.673 59.195 C 155.526 57.214, 155.027 56.673, 156.127 55.347 C 157.008 54.286, 158.435 53.971, 160.704 54.339 C 164.552 54.964, 165.456 52.624, 161.750 51.630 C 158.907 50.869, 158.013 50.920, 155.338 51.999 M 128.824 60.544 C 131.007 67.823, 131.680 69.045, 133.372 68.794 C 134.878 68.571, 135.644 67.224, 136.543 63.220 C 137.194 60.316, 137.960 57.707, 138.244 57.422 C 138.529 57.138, 139.396 59.514, 140.172 62.703 C 141.245 67.111, 142.052 68.564, 143.541 68.768 C 145.189 68.992, 145.918 67.681, 148.131 60.518 C 150.550 52.687, 150.619 52, 148.989 52 C 147.883 52, 146.967 53.034, 146.553 54.750 C 146.188 56.263, 145.395 59.300, 144.792 61.500 L 143.694 65.500 142.046 59 C 140.744 53.861, 140.001 52.500, 138.500 52.500 C 136.999 52.500, 136.256 53.861, 134.954 59 L 133.306 65.500 132.208 61.500 C 131.605 59.300, 130.812 56.263, 130.447 54.750 C 130.035 53.043, 129.116 52, 128.023 52 C 126.405 52, 126.469 52.691, 128.824 60.544 M 115.250 61.662 C 114.563 61.940, 114 63.254, 114 64.583 C 114 66.461, 114.530 67, 116.378 67 C 119.206 67, 121.457 64.632, 120.643 62.513 C 120.074 61.030, 117.732 60.661, 115.250 61.662 M 156 77.417 C 156 78.746, 155.438 80.062, 154.750 80.341 C 153.795 80.728, 153.780 81.048, 154.686 81.693 C 155.338 82.158, 156.044 84.780, 156.256 87.519 L 156.640 92.500 156.820 87.250 C 156.996 82.123, 157.071 82, 160 82 C 162.933 82, 163 82.111, 163 87 C 163 89.825, 163.457 92, 164.050 92 C 164.696 92, 164.985 89.789, 164.800 86.250 L 164.500 80.500 160.750 80.190 C 157.864 79.951, 157 79.448, 157 78.009 C 157 76.865, 157.873 75.971, 159.250 75.706 C 161.179 75.334, 161.108 75.253, 158.750 75.136 C 156.471 75.023, 156 75.414, 156 77.417 M 189 78.019 C 189 80.709, 188.738 80.972, 186.593 80.434 C 182.538 79.416, 180 81.525, 180 85.913 C 180 90.603, 181.674 92.152, 186.398 91.834 L 190 91.591 190 83.296 C 190 78.733, 189.775 75, 189.500 75 C 189.225 75, 189 76.359, 189 78.019 M 149 77 C 149 77.550, 149.450 78, 150 78 C 150.550 78, 151 77.550, 151 77 C 151 76.450, 150.550 76, 150 76 C 149.450 76, 149 76.450, 149 77 M 163 77 C 163 77.550, 163.450 78, 164 78 C 164.550 78, 165 77.550, 165 77 C 165 76.450, 164.550 76, 164 76 C 163.450 76, 163 76.450, 163 77 M 142.116 78.167 C 142.052 79.083, 141.438 80.062, 140.750 80.341 C 139.799 80.726, 139.782 81.049, 140.681 81.690 C 141.331 82.154, 142.006 84.550, 142.181 87.016 C 142.462 90.969, 142.796 91.528, 145 91.740 C 147.464 91.977, 147.467 91.966, 145.250 91.022 C 143.447 90.255, 143 89.263, 143 86.032 C 143 82.667, 143.331 82, 145 82 C 146.100 82, 147 81.550, 147 81 C 147 80.450, 146.133 80, 145.073 80 C 144.014 80, 142.941 79.213, 142.689 78.250 C 142.287 76.710, 142.218 76.700, 142.116 78.167 M 111.655 81.829 C 109.770 83.912, 109.520 87.234, 111.035 90.066 C 111.755 91.411, 113.049 91.964, 115.285 91.882 L 118.500 91.763 115.500 91.127 C 112.962 90.589, 112.449 89.960, 112.171 87.040 C 111.818 83.335, 114.007 80.682, 116.597 81.676 C 117.369 81.972, 118 81.716, 118 81.107 C 118 79.321, 113.457 79.837, 111.655 81.829 M 121.655 81.829 C 119.410 84.309, 119.570 88.570, 122 91 C 124.207 93.207, 125.738 93.462, 128 92 C 129.140 91.263, 128.729 91.027, 126.285 91.015 C 124.104 91.005, 122.726 90.357, 122 89 C 121.011 87.152, 121.240 87, 124.996 87 C 129.525 87, 130.828 85.415, 129.042 82.078 C 127.661 79.498, 123.880 79.371, 121.655 81.829 M 133.181 86.500 C 133.356 92.340, 133.371 92.370, 133.739 87.641 C 134.035 83.857, 134.548 82.669, 136.059 82.274 C 138.848 81.545, 138.453 80.185, 135.501 80.356 C 133.107 80.494, 133.009 80.754, 133.181 86.500 M 150.320 86 C 150.320 89.575, 150.502 91.037, 150.723 89.250 C 150.945 87.463, 150.945 84.537, 150.723 82.750 C 150.502 80.963, 150.320 82.425, 150.320 86 M 169.750 81.060 C 168.557 81.769, 168 83.349, 168 86.027 C 168 90.888, 171.225 93.637, 175.106 92.084 C 177.427 91.156, 177.407 91.125, 174.450 91.063 C 168.804 90.946, 166.941 87, 172.531 87 C 174.878 87, 176.273 86.451, 176.691 85.364 C 178.091 81.715, 173.470 78.849, 169.750 81.060 M 122.980 82.524 C 121.284 84.568, 122.149 85.205, 126.094 84.821 C 129.228 84.515, 129.298 84.419, 127.618 82.750 C 125.459 80.604, 124.608 80.563, 122.980 82.524 M 170.750 82.080 C 167.947 83.713, 168.719 85, 172.500 85 C 176.164 85, 176.812 84.212, 174.800 82.200 C 173.367 80.767, 173.022 80.757, 170.750 82.080 M 182.517 82.626 C 179.066 86.077, 182.774 92.883, 186.750 90.394 C 189.223 88.846, 189.615 83.923, 187.395 82.299 C 185.098 80.620, 184.482 80.661, 182.517 82.626 M 78 106 C 78 106.657, 102.667 107, 150 107 C 197.333 107, 222 106.657, 222 106 C 222 105.343, 197.333 105, 150 105 C 102.667 105, 78 105.343, 78 106 M 128 131.465 C 128 140.971, 128.187 142.030, 130.038 143.020 C 132.445 144.309, 136 143.426, 136 141.540 C 136 140.811, 135.325 139.955, 134.500 139.638 C 133.320 139.186, 133 137.137, 133 130.031 C 133 121.065, 132.982 121, 130.500 121 L 128 121 128 131.465 M 183 124.500 C 183 127.822, 182.825 128, 179.557 128 C 175.313 128, 173 130.875, 173 136.150 C 173 138.978, 173.635 140.354, 175.682 141.965 C 177.261 143.207, 179.009 143.800, 179.932 143.407 C 180.794 143.040, 182.963 142.812, 184.750 142.901 L 188 143.063 188 132.031 L 188 121 185.500 121 C 183.310 121, 183 121.433, 183 124.500 M 115.329 123.458 C 111.344 125.191, 110 127.674, 110 133.299 C 110 141.024, 116.445 145.682, 123.449 143.019 C 127.652 141.422, 126.448 138.645, 121.518 138.565 C 118.195 138.511, 117.319 138.046, 116.214 135.750 C 114.130 131.420, 116.384 127.594, 121.257 127.190 C 124.099 126.954, 125 126.440, 125 125.056 C 125 122.050, 120.337 121.279, 115.329 123.458 M 138.982 130.750 C 136.700 133.651, 136.718 138.751, 139.021 141.525 C 142.291 145.465, 150.629 143.692, 152.274 138.707 C 154.240 132.749, 151.014 128, 145.001 128 C 141.986 128, 140.674 128.599, 138.982 130.750 M 155.345 129.542 C 155.020 130.390, 154.975 133.391, 155.246 136.210 C 155.796 141.930, 158.027 144.482, 161.448 143.301 C 162.576 142.911, 164.963 142.684, 166.750 142.796 L 170 142.999 170 135.499 C 170 128.207, 169.932 128, 167.550 128 C 165.269 128, 165.079 128.396, 164.800 133.750 C 164.575 138.061, 164.125 139.500, 163 139.500 C 161.875 139.500, 161.425 138.061, 161.200 133.750 C 160.920 128.375, 160.738 128, 158.419 128 C 157.054 128, 155.671 128.694, 155.345 129.542 M 178.965 133.066 C 178.093 134.694, 178.080 135.879, 178.911 137.705 C 180.516 141.227, 182.500 140.008, 182.500 135.500 C 182.500 131.104, 180.684 129.854, 178.965 133.066 M 143.190 135.750 C 143.399 138.279, 143.989 139.500, 145 139.500 C 146.011 139.500, 146.601 138.279, 146.810 135.750 C 147.080 132.498, 146.839 132, 145 132 C 143.161 132, 142.920 132.498, 143.190 135.750 M 140.359 151.507 C 140.011 152.414, 140.383 153.812, 141.186 154.614 C 143.187 156.615, 146.188 155.321, 145.803 152.623 C 145.424 149.965, 141.277 149.115, 140.359 151.507 M 161.667 150.667 C 160.400 151.933, 161.006 154.788, 162.678 155.430 C 164.802 156.245, 167.471 153.669, 166.668 151.578 C 166.060 149.994, 162.913 149.420, 161.667 150.667 M 67.473 153.210 C 67.167 154.007, 67.048 158.673, 67.209 163.579 C 67.500 172.486, 67.504 172.501, 70.250 172.816 C 72.795 173.109, 73 172.867, 73 169.566 C 73 166.334, 73.260 166, 75.777 166 C 81.978 166, 85.287 159.511, 81.634 154.515 C 79.818 152.031, 68.332 150.973, 67.473 153.210 M 129.290 156 C 129.002 157.100, 128.369 158, 127.883 158 C 127.398 158, 127 158.675, 127 159.500 C 127 160.325, 127.450 161, 128 161 C 128.550 161, 129 163.160, 129 165.800 C 129 171.457, 130.222 173, 134.700 173 C 137.265 173, 138 172.581, 138 171.117 C 138 170.074, 137.107 169, 136 168.710 C 134.528 168.325, 134 167.346, 134 165 C 134 162.654, 134.528 161.675, 136 161.290 C 137.100 161.002, 138 160.197, 138 159.500 C 138 158.803, 137.100 157.998, 136 157.710 C 134.900 157.423, 134 156.470, 134 155.594 C 134 153.223, 129.924 153.575, 129.290 156 M 150.292 155.750 C 149.936 156.713, 149.163 157.824, 148.573 158.219 C 147.823 158.723, 147.876 159.545, 148.750 160.956 C 149.438 162.065, 150 164.724, 150 166.864 C 150 171.419, 151.767 173.272, 155.681 172.822 C 159.051 172.435, 160.029 169.502, 157.048 168.723 C 154.085 167.948, 154.042 161, 157 161 C 158.100 161, 159 160.377, 159 159.617 C 159 158.856, 158.100 157.998, 157 157.710 C 155.900 157.423, 155 156.470, 155 155.594 C 155 153.413, 151.106 153.542, 150.292 155.750 M 73 159 C 73 162.289, 74.918 163.008, 77 160.500 C 77.993 159.303, 77.993 158.697, 77 157.500 C 74.918 154.992, 73 155.711, 73 159 M 93.086 157.926 C 92.308 158.418, 90.150 158.574, 88.289 158.272 L 84.907 157.723 85.203 165.112 C 85.492 172.306, 85.571 172.508, 88.196 172.811 C 90.792 173.111, 90.902 172.927, 91.196 167.811 C 91.461 163.175, 91.786 162.459, 93.750 162.180 C 95.379 161.949, 96 161.190, 96 159.430 C 96 156.835, 95.344 156.497, 93.086 157.926 M 99.750 157.689 C 98.787 157.941, 98 158.952, 98 159.937 C 98 161.352, 98.766 161.704, 101.646 161.614 C 103.754 161.548, 105.477 162.027, 105.730 162.750 C 106.023 163.590, 105.056 164, 102.783 164 C 98.876 164, 97 165.485, 97 168.578 C 97 171.861, 98.930 172.845, 105.256 172.789 L 111 172.737 111 166.440 C 111 162.049, 110.524 159.667, 109.429 158.571 C 107.939 157.082, 103.590 156.686, 99.750 157.689 M 117.500 158.195 C 114.576 159.853, 114.032 161.028, 114.015 165.727 C 113.997 170.792, 116.910 173.325, 122.171 172.819 C 126.726 172.381, 127.541 169, 123.092 169 C 120.664 169, 119.909 168.485, 119.407 166.487 C 118.625 163.371, 120.446 161, 123.622 161 C 126.307 161, 126.881 158.552, 124.418 157.607 C 122.094 156.715, 119.760 156.913, 117.500 158.195 M 172.736 158.250 C 168.761 161.269, 168.537 168.862, 172.345 171.529 C 175.357 173.639, 180.622 173.378, 183 171 C 186.058 167.942, 185.727 161.717, 182.365 159.073 C 179.399 156.739, 175.198 156.380, 172.736 158.250 M 195.631 157.702 C 195.245 158.088, 193.370 158.299, 191.465 158.171 L 188 157.937 188 165.469 C 188 172.795, 188.067 173, 190.450 173 C 192.731 173, 192.921 172.603, 193.200 167.260 C 193.437 162.732, 193.870 161.449, 195.250 161.186 C 196.763 160.898, 197 161.686, 197 166.993 C 197 173.101, 197.014 173.131, 199.750 172.816 C 202.352 172.517, 202.516 172.191, 202.799 166.776 C 202.964 163.628, 202.610 160.140, 202.014 159.026 C 200.963 157.063, 197.076 156.257, 195.631 157.702 M 207.974 158.820 C 204.760 161.422, 204.796 168.606, 208.035 171.229 C 211.057 173.677, 218.321 173.354, 218.815 170.750 C 219.087 169.315, 218.412 169, 215.073 169 C 212.119 169, 211 168.588, 211 167.500 C 211 166.417, 212.111 166, 215 166 C 218.756 166, 219 165.821, 219 163.071 C 219 157.402, 212.717 154.979, 207.974 158.820 M 230.086 157.926 C 229.308 158.418, 227.150 158.574, 225.289 158.272 L 221.907 157.723 222.203 165.112 C 222.490 172.247, 222.586 172.500, 225 172.500 C 227.311 172.500, 227.523 172.103, 227.802 167.250 C 228.080 162.429, 228.304 162, 230.552 162 C 232.497 162, 233 161.486, 233 159.500 C 233 156.838, 232.355 156.489, 230.086 157.926 M 140.206 165.250 C 140.493 172.332, 140.564 172.507, 143.250 172.816 L 146 173.133 146 165.566 L 146 158 142.956 158 L 139.912 158 140.206 165.250 M 161 165.500 L 161 173 164 173 L 167 173 167 165.500 L 167 158 164 158 L 161 158 161 165.500 M 175.390 162.427 C 174.440 164.902, 175.433 168.467, 177.165 168.797 C 179.121 169.169, 180.428 165.925, 179.500 163 C 178.767 160.689, 176.194 160.331, 175.390 162.427 M 211 162 C 211 162.550, 211.900 163, 213 163 C 214.100 163, 215 162.550, 215 162 C 215 161.450, 214.100 161, 213 161 C 211.900 161, 211 161.450, 211 162 M 103 167 C 101.819 167.730, 101.770 168.170, 102.758 169.158 C 103.724 170.124, 104.267 170.133, 105.200 169.200 C 106.822 167.578, 105.005 165.761, 103 167 M 113.750 187.750 C 133.688 187.901, 166.313 187.901, 186.250 187.750 C 206.188 187.598, 189.875 187.474, 150 187.474 C 110.125 187.474, 93.813 187.598, 113.750 187.750 M 59.200 208.671 C 59.381 212.089, 59.997 214.506, 60.750 214.754 C 61.493 215, 62 214.285, 62 212.990 C 62 211.654, 62.773 210.611, 64 210.290 C 66.631 209.602, 66.573 208, 63.917 208 C 62.689 208, 62.008 207.486, 62.260 206.750 C 62.494 206.063, 63.657 205.641, 64.843 205.813 C 66.266 206.019, 67 205.594, 67 204.563 C 67 203.403, 65.956 203, 62.950 203 L 58.900 203 59.200 208.671 M 73.956 204.553 C 70.638 208.551, 73.465 215, 78.536 215 C 83.188 215, 85.816 207.959, 82.429 204.571 C 80.413 202.556, 75.622 202.546, 73.956 204.553 M 90 207.355 C 90 212.367, 91.850 215, 95.371 215 C 98.763 215, 100 213.075, 100 207.800 C 100 204.200, 99.625 203, 98.500 203 C 97.392 203, 97 204.160, 97 207.441 C 97 214.735, 93.733 214.392, 93.576 207.082 C 93.522 204.540, 93.005 203.440, 91.750 203.195 C 90.292 202.910, 90 203.604, 90 207.355 M 107 209 C 107 213.549, 107.347 215, 108.437 215 C 109.326 215, 109.994 213.762, 110.189 211.750 L 110.505 208.500 112.278 211.750 C 115.193 217.092, 117 216.007, 117 208.917 C 117 204.481, 116.662 202.953, 115.750 203.276 C 115.063 203.519, 114.585 204.907, 114.688 206.359 C 114.940 209.895, 113.535 209.707, 112 206 C 111.243 204.172, 110.023 203, 108.879 203 C 107.249 203, 107 203.796, 107 209 M 124 209 C 124 214.893, 124.049 215, 126.777 215 C 130.827 215, 134 212.407, 134 209.098 C 134 205.510, 131.190 203, 127.171 203 L 124 203 124 209 M 141.372 208.488 C 139.600 214.111, 140.160 216.869, 142.442 213.748 C 144.009 211.605, 145.366 211.531, 147 213.500 C 147.685 214.325, 148.835 215, 149.557 215 C 150.560 215, 150.392 213.588, 148.843 209 C 146.128 200.962, 143.795 200.802, 141.372 208.488 M 155.250 204.250 C 155.479 204.938, 156.304 205.500, 157.083 205.500 C 158.067 205.500, 158.594 206.972, 158.807 210.314 C 159.208 216.595, 161.388 216.067, 161.808 209.587 C 162.045 205.931, 162.450 204.959, 163.558 205.384 C 164.411 205.711, 165 205.337, 165 204.469 C 165 203.370, 163.720 203, 159.917 203 C 156.294 203, 154.953 203.359, 155.250 204.250 M 171 209 C 171 213.667, 171.333 215, 172.500 215 C 173.667 215, 174 213.667, 174 209 C 174 204.333, 173.667 203, 172.500 203 C 171.333 203, 171 204.333, 171 209 M 181.971 204.535 C 180.156 206.721, 180.549 212.197, 182.630 213.719 C 188.418 217.951, 195.500 209.643, 190.429 204.571 C 188.421 202.564, 183.624 202.543, 181.971 204.535 M 199 209 C 199 215.563, 200.680 217.275, 201.208 211.250 L 201.537 207.500 203.470 211.284 C 206.331 216.885, 208.427 215.884, 208.800 208.740 C 209.037 204.193, 208.791 203, 207.613 203 C 206.668 203, 206.012 204.182, 205.811 206.250 L 205.495 209.500 203.722 206.250 C 200.821 200.933, 199 201.993, 199 209 M 216.157 209 C 214.463 214.016, 214.371 215, 215.597 215 C 216.403 215, 217.322 214.325, 217.638 213.500 C 218.388 211.547, 219.901 211.600, 222.177 213.661 C 225.065 216.274, 225.553 214.408, 223.534 208.470 C 220.972 200.932, 218.830 201.086, 216.157 209 M 231.200 208.750 L 231.500 214.500 235.250 214.810 C 238.114 215.047, 239 214.752, 239 213.560 C 239 212.563, 238.099 212, 236.500 212 C 234.204 212, 234 211.633, 234 207.500 C 234 204.102, 233.620 203, 232.450 203 C 231.195 203, 230.957 204.094, 231.200 208.750 M 76.688 205.646 C 76.309 206.024, 76 207.608, 76 209.167 C 76 211.348, 76.468 212, 78.031 212 C 79.149 212, 80.345 211.264, 80.691 210.364 C 81.709 207.709, 78.457 203.876, 76.688 205.646 M 127.658 205.675 C 127.296 206.037, 127 207.641, 127 209.240 C 127 211.469, 127.408 212.069, 128.750 211.813 C 130.940 211.396, 131.564 207.713, 129.706 206.171 C 128.942 205.537, 128.020 205.313, 127.658 205.675 M 184.667 205.667 C 183.452 206.881, 183.976 211.777, 185.378 212.315 C 188.326 213.446, 190.232 208.632, 187.800 206.200 C 186.441 204.841, 185.631 204.703, 184.667 205.667 M 144 208.500 C 144 209.325, 144.450 210, 145 210 C 145.550 210, 146 209.325, 146 208.500 C 146 207.675, 145.550 207, 145 207 C 144.450 207, 144 207.675, 144 208.500 M 219 208.500 C 219 209.325, 219.450 210, 220 210 C 220.550 210, 221 209.325, 221 208.500 C 221 207.675, 220.550 207, 220 207 C 219.450 207, 219 207.675, 219 208.500 M 275.383 222.425 C 274.481 224.372, 274.529 224.734, 275.633 224.311 C 276.385 224.022, 277 222.934, 277 221.893 C 277 219.425, 276.733 219.513, 275.383 222.425 M 268.441 227.555 C 266.577 229.049, 266.589 229.067, 268.750 228.020 C 269.988 227.420, 271 226.720, 271 226.465 C 271 225.700, 270.481 225.921, 268.441 227.555" stroke="none" fill="#2a2a2a" fill-rule="evenodd"/></svg>